<svg width="34" height="24" viewBox="0 0 34 24" fill="#5B588F" xmlns="http://www.w3.org/2000/svg">
 <path d="M33 13.5C33.2761 13.5 33.5 13.2761 33.5 13C33.5 12.7239 33.2761 12.5 33 12.5L33 13.5ZM2.64644 12.6464C2.45118 12.8417 2.45118 13.1583 2.64644 13.3535L5.82842 16.5355C6.02369 16.7308 6.34027 16.7308 6.53553 16.5355C6.73079 16.3403 6.73079 16.0237 6.53553 15.8284L3.70711 13L6.53553 10.1716C6.7308 9.97631 6.7308 9.65972 6.53553 9.46446C6.34027 9.2692 6.02369 9.2692 5.82843 9.46446L2.64644 12.6464ZM33 12.5L3 12.5L3 13.5L33 13.5L33 12.5Z" />
</svg>
