<svg viewBox="0 0 40 40" fill="none" xmlns="http://www.w3.org/2000/svg">
<circle cx="20" cy="20" r="20" fill="#ECE5FF"/>
<path d="M9 20.25C8.58579 20.25 8.25 20.5858 8.25 21C8.25 21.4142 8.58579 21.75 9 21.75V20.25ZM29.5303 21.5303C29.8232 21.2374 29.8232 20.7626 29.5303 20.4697L24.7574 15.6967C24.4645 15.4038 23.9896 15.4038 23.6967 15.6967C23.4038 15.9896 23.4038 16.4645 23.6967 16.7574L27.9393 21L23.6967 25.2426C23.4038 25.5355 23.4038 26.0104 23.6967 26.3033C23.9896 26.5962 24.4645 26.5962 24.7574 26.3033L29.5303 21.5303ZM9 21.75H29V20.25H9V21.75Z" fill="#BE44F8"/>
</svg>
