<svg viewBox="0 0 201 200" fill="none" stroke="#FD471F" xmlns="http://www.w3.org/2000/svg">
<path d="M83.8333 116.667L100.5 100M100.5 100L117.167 83.3333M100.5 100L83.8333 83.3333M100.5 100L117.167 116.667M175.5 100C175.5 109.849 173.56 119.602 169.791 128.701C166.022 137.801 160.497 146.069 153.533 153.033C146.569 159.997 138.301 165.522 129.201 169.291C120.102 173.06 110.349 175 100.5 175C90.6509 175 80.8982 173.06 71.7987 169.291C62.6993 165.522 54.4314 159.997 47.467 153.033C40.5026 146.069 34.9781 137.801 31.209 128.701C27.4399 119.602 25.5 109.849 25.5 100C25.5 80.1088 33.4018 61.0322 47.467 46.967C61.5322 32.9018 80.6088 25 100.5 25C120.391 25 139.468 32.9018 153.533 46.967C167.598 61.0322 175.5 80.1088 175.5 100Z" stroke-width="4" stroke-linecap="round" stroke-linejoin="round"/>
</svg>
