<svg width="201" height="200" viewBox="0 0 201 200" fill="none" xmlns="http://www.w3.org/2000/svg">
<path d="M113.487 152.295C108.412 152.295 104.26 148.143 104.26 143.068C104.26 137.993 108.412 133.887 113.487 133.887C118.562 133.887 122.668 137.993 122.668 143.068C122.668 148.143 118.516 152.295 113.487 152.295ZM147.305 196.771H23.9544C13.8045 196.771 5.5 188.512 5.5 178.316V80.9757C5.5 70.7334 13.8506 62.3828 24.0928 62.3828H102.922C113.164 62.3828 121.469 70.7334 121.469 80.9757V89.412H147.305C157.501 89.412 165.76 97.7165 165.76 107.866V122.03C170.512 123.045 174.018 127.29 174.018 132.272V153.864C174.018 158.893 170.512 163.091 165.76 164.152V178.316C165.806 188.512 157.501 196.771 147.305 196.771ZM164.885 128.028L113.257 128.028C104.952 128.028 98.1701 134.81 98.1701 143.114C98.1701 151.419 104.952 158.155 113.257 158.155L164.885 158.155C167.238 158.155 169.456 156.263 169.456 153.864V132.319C169.456 129.412 167.791 128.028 164.885 128.028ZM24.0928 66.9907C17.2647 66.9907 10.0617 74.1475 10.0617 80.9757V178.316C10.0617 185.052 17.2186 192.163 23.9544 192.163L148.833 192.163C155.569 192.163 161.198 185.857 161.198 179.167L161.198 162.716H113.257C101.492 162.716 93.6084 154.833 93.6084 143.068C93.6084 131.35 101.492 123.42 113.257 123.42H161.198L161.198 106.667C161.198 99.9314 155.087 94.0198 148.351 94.0198L38.2855 94.0198C34.1794 94.0198 34.1794 89.412 38.2855 89.412H116.907V80.9295C116.907 74.1475 109.704 66.9445 102.922 66.9445H24.0928V66.9907Z" fill="url(#paint0_linear_1072_4883)"/>
<path d="M133.127 33.8159C144.35 35.1776 154.643 40.3771 162.215 48.5103C169.787 56.6435 174.16 67.196 174.573 78.333M135.635 13.333C151.45 15.3894 166.257 23.0559 177.279 34.8945C188.301 46.733 194.78 61.9302 195.501 77.6355M132.168 55.9458C137.26 57.1085 141.916 59.7966 145.492 63.6372C149.067 67.4779 151.385 72.2808 152.124 77.38" stroke="url(#paint1_linear_1072_4883)" stroke-width="4" stroke-linecap="round" stroke-linejoin="round"/>
<defs>
<linearGradient id="paint0_linear_1072_4883" x1="5.5" y1="130.132" x2="174.018" y2="130.132" gradientUnits="userSpaceOnUse">
<stop offset="0.00148258" stop-color="#E644F8"/>
<stop offset="0.484375" stop-color="#9FA3FF"/>
<stop offset="1" stop-color="#82D2FF"/>
</linearGradient>
<linearGradient id="paint1_linear_1072_4883" x1="132.168" y1="46.1016" x2="195.501" y2="46.1016" gradientUnits="userSpaceOnUse">
<stop offset="0.00148258" stop-color="#E644F8"/>
<stop offset="0.484375" stop-color="#9FA3FF"/>
<stop offset="1" stop-color="#82D2FF"/>
</linearGradient>
</defs>
</svg>
