<svg width="227" height="80" viewBox="0 0 227 80" fill="none" xmlns="http://www.w3.org/2000/svg">
<path d="M42.8076 40.9968L49.1282 34.9905L55.4521 41L59.1299 37.505L49.1282 28L39.1299 37.5018L42.8076 40.9968Z" fill="#5B588F"/>
<path d="M40.244 43.9995L36.6221 40.3835L33 43.9997L36.6219 47.6156L40.244 43.9995Z" fill="#5B588F"/>
<path d="M42.8117 47.0029L49.13 53.0093L55.4514 47L59.1299 50.4931L59.1281 50.4951L49.13 60L39.135 50.4983L39.1299 50.4934L42.8117 47.0029Z" fill="#5B588F"/>
<path d="M61.4307 47.6171L65.0527 44.001L61.4309 40.3851L57.8088 44.0012L61.4307 47.6171Z" fill="#5B588F"/>
<path d="M53.1263 43.9979H53.128L49.1299 40L46.1753 42.9545H46.175L45.8357 43.2941L45.1354 43.9944L45.1299 43.9999L45.1354 44.0056L49.1299 48L53.128 44.0021L53.1299 43.9999L53.1263 43.9979Z" fill="#5B588F"/>
<path d="M71.1299 36H78.7763C80.6741 36 82.1091 36.5019 83.0817 37.5056C83.8344 38.2829 84.2106 39.2464 84.2106 40.3957V40.4443C84.2106 40.9299 84.1524 41.3591 84.0352 41.7313C83.9182 42.104 83.7619 42.4395 83.5665 42.7391C83.3717 43.0389 83.1451 43.302 82.8876 43.5283C82.6298 43.7552 82.3529 43.9497 82.0563 44.1112C83.0102 44.4839 83.7612 44.9896 84.3087 45.6292C84.8559 46.269 85.1299 47.1555 85.1299 48.2886V48.337C85.1299 49.1143 84.9849 49.7942 84.6947 50.3773C84.4045 50.9599 83.9887 51.4458 83.4474 51.8345C82.906 52.2232 82.2551 52.5144 81.4943 52.7088C80.7335 52.903 79.8904 53 78.9652 53H71.1299V36ZM78.0118 42.8728C78.8134 42.8728 79.4498 42.7315 79.9209 42.4479C80.3922 42.1646 80.6279 41.707 80.6279 41.0758V41.0272C80.6279 40.4607 80.4234 40.0277 80.015 39.728C79.6064 39.4284 79.0171 39.2785 78.2475 39.2785H74.665V42.8728H78.0118ZM78.9783 49.7217C79.7796 49.7217 80.4077 49.5724 80.8638 49.2726C81.3193 48.973 81.5474 48.5074 81.5474 47.8759V47.8275C81.5474 47.2608 81.3351 46.8116 80.9109 46.4794C80.4866 46.148 79.8032 45.9819 78.8603 45.9819H74.665V49.722H78.9783V49.7217Z" fill="#5B588F"/>
<path d="M90.1299 36H93.1299V53H90.1299V36Z" fill="#5B588F"/>
<path d="M99.1299 36H102.554L110.464 46.4672V36H114.13V53H110.971L102.795 42.193V53H99.1299V36Z" fill="#5B588F"/>
<path d="M125.408 36H128.852L136.13 53H132.224L130.672 49.2143H123.491L121.939 53H118.13L125.408 36ZM129.338 45.9345L127.081 40.4609L124.826 45.9345H129.338Z" fill="#5B588F"/>
<path d="M140.13 36H143.555L151.464 46.4672V36H155.13V53H151.971L143.795 42.193V53H140.13V36Z" fill="#5B588F"/>
<path d="M169.022 53C167.75 53 166.57 52.7677 165.48 52.304C164.39 51.8403 163.449 51.206 162.656 50.4019C161.863 49.5981 161.244 48.6492 160.799 47.5553C160.353 46.4612 160.13 45.2927 160.13 44.0495V44C160.13 42.7568 160.353 41.5927 160.799 40.5069C161.244 39.4213 161.863 38.4682 162.656 37.6478C163.448 36.8274 164.398 36.1807 165.504 35.7084C166.61 35.2361 167.833 35 169.17 35C169.979 35 170.718 35.0666 171.386 35.1988C172.055 35.3318 172.662 35.5138 173.207 35.7457C173.752 35.978 174.255 36.2598 174.718 36.591C175.18 36.9228 175.61 37.2873 176.006 37.6851L173.579 40.4945C172.901 39.8814 172.212 39.4003 171.511 39.0525C170.809 38.7046 170.02 38.5304 169.145 38.5304C168.419 38.5304 167.746 38.6714 167.127 38.9532C166.508 39.235 165.975 39.6243 165.529 40.1215C165.084 40.6186 164.737 41.1948 164.489 41.8493C164.241 42.5044 164.118 43.2045 164.118 43.9502V43.9997C164.118 44.7455 164.241 45.4503 164.489 46.1128C164.737 46.7761 165.079 47.356 165.517 47.8531C165.954 48.3503 166.483 48.7443 167.102 49.0344C167.721 49.3247 168.402 49.4693 169.145 49.4693C170.136 49.4693 170.974 49.2871 171.659 48.9224C172.344 48.5582 173.026 48.0608 173.703 47.4306L176.13 49.8921C175.684 50.3729 175.221 50.804 174.743 51.1848C174.264 51.5663 173.74 51.8934 173.17 52.1672C172.6 52.4404 171.976 52.648 171.3 52.7885C170.623 52.9292 169.863 53 169.022 53Z" fill="#5B588F"/>
<path d="M180.13 36H193.007V39.3273H183.844V42.7758H191.908V46.1029H183.844V49.673H193.13V53H180.13V36Z" fill="#5B588F"/>
</svg>
