<svg width="227" height="80" viewBox="0 0 227 80" fill="none" xmlns="http://www.w3.org/2000/svg">
<path d="M183.695 50.0352C184.668 51.0674 190.013 56.0146 198.402 50.273C204.468 45.5409 204.317 35.2816 203.734 32.1835C203.531 32.6344 196.485 48.0901 183.695 50.0352ZM203.733 32.1809C203.659 32.1501 195.854 31.0843 188.139 36.0619C183.348 39.1528 182.715 43.6767 182.933 46.6912C194.149 45.4339 203.479 32.5353 203.733 32.1809Z" fill="#5B588F"/>
<path d="M203.733 32.1809C203.659 32.1501 195.854 31.0843 188.139 36.0619C183.348 39.1528 182.715 43.6767 182.933 46.6912C194.149 45.4339 203.479 32.5353 203.733 32.1809Z" fill="#5B588F"/>
<path d="M35.5115 49.4318H26.7748V44.7708H35.5115C37.6957 44.7708 38.8115 45.8171 38.8115 47.1727C38.8115 48.4806 37.7194 49.4318 35.5115 49.4318ZM35.2266 42.2738H26.7748V38.3499H35.2266C37.5295 38.3499 38.4316 39.1585 38.4316 40.2762C38.4316 41.2988 37.387 42.2738 35.2266 42.2738ZM37.4583 43.4628C41.1381 43.3439 42.4676 41.5128 42.4676 39.5152C42.4676 37.3274 40.7345 35.52 36.5086 35.52H23V52.2142H36.9122C40.3784 52.2142 42.9662 50.7636 42.9662 47.6483C42.9662 45.4366 41.518 43.558 37.4583 43.4628ZM47.4246 35.52V52.2142H51.1994V35.52H47.4246ZM66.5075 38.6829H74.8168V35.52H54.4233V38.6829H62.7327V52.2142H66.5075V38.6829ZM78.0407 35.52V52.2142H81.8155V45.6982H90.6709V42.9634H81.8155V38.3975H96.2026V35.52H78.0407ZM99.2603 35.52V52.2142H103.035V35.52H99.2603ZM111.886 39.5866L124.397 52.2142H128.67V35.52H124.943V47.5531L112.93 35.52H108.135V52.2142H111.886V39.5866ZM133.77 35.52V52.2142H152.24V49.4081H137.545V44.8183H146.353V42.2262H137.545V38.3975H152.24V35.52H133.77ZM177.52 35.52H172.534L166.172 41.3939L159.856 35.52H154.8L163.679 43.7482L154.467 52.2142H159.453L166.124 46.055L172.771 52.2142H177.852L168.617 43.7244L177.52 35.52Z" fill="#5B588F"/>
</svg>
