<svg width="227" height="80" viewBox="0 0 227 80" fill="none" xmlns="http://www.w3.org/2000/svg">
<path d="M68.274 34.5379C62.8248 34.5379 58.5671 38.7061 58.5671 44.2861C58.5671 49.8661 62.7172 53.9986 68.274 53.9986C73.8307 53.9986 78.053 49.7948 78.053 44.2504C78.053 38.7418 73.9028 34.5379 68.274 34.5379ZM68.3107 49.9772C65.2076 49.9772 62.9337 47.5488 62.9337 44.2875C62.9337 40.9891 65.1709 38.562 68.274 38.562C71.4138 38.562 73.6863 41.0262 73.6863 44.2875C73.6863 47.5488 71.4138 49.9772 68.3107 49.9772ZM79.2431 38.7788H81.9499V53.6378H86.2798V34.9001H79.2431V38.7788ZM47.6701 38.5606C49.944 38.5606 51.7481 39.9738 52.433 42.0758H57.0162C56.1856 37.5824 52.5052 34.5379 47.7069 34.5379C42.2577 34.5379 38 38.7061 38 44.2875C38 49.8688 42.1502 54 47.7069 54C52.3976 54 56.1502 50.9555 56.9808 46.4251H52.433C51.7835 48.527 49.9794 49.9772 47.7055 49.9772C44.5657 49.9772 42.3653 47.5488 42.3653 44.2875C42.3667 40.9891 44.5316 38.5606 47.6701 38.5606ZM161.514 42.475L158.339 42.0044C156.823 41.7876 155.741 41.28 155.741 40.0836C155.741 38.7788 157.149 38.1271 159.06 38.1271C161.153 38.1271 162.489 39.0326 162.778 40.5185H166.963C166.493 36.7496 163.607 34.5393 159.169 34.5393C154.586 34.5393 151.555 36.895 151.555 40.229C151.555 43.4176 153.54 45.2671 157.545 45.8461L160.72 46.3167C162.272 46.5335 163.138 47.1509 163.138 48.3102C163.138 49.7961 161.623 50.4122 159.53 50.4122C156.968 50.4122 155.524 49.3612 155.308 47.7669H151.05C151.448 51.4275 154.298 54 159.493 54C164.221 54 167.359 51.8253 167.359 48.0921C167.359 44.7581 165.087 43.0183 161.514 42.475ZM84.1149 27.1811C82.5272 27.1811 81.3358 28.3405 81.3358 29.9348C81.3358 31.529 82.5259 32.6884 84.1149 32.6884C85.7025 32.6884 86.8939 31.529 86.8939 29.9348C86.8939 28.3405 85.7025 27.1811 84.1149 27.1811ZM147.658 41.3157C147.658 37.2572 145.205 34.5393 140.009 34.5393C135.102 34.5393 132.359 37.0405 131.817 40.8821H136.112C136.328 39.3962 137.483 38.1641 139.937 38.1641C142.138 38.1641 143.221 39.1424 143.221 40.3388C143.221 41.8974 141.236 42.2953 138.782 42.5491C135.462 42.9113 131.349 44.0707 131.349 48.42C131.349 51.791 133.839 53.9643 137.808 53.9643C140.912 53.9643 142.86 52.6595 143.835 50.5933C143.979 52.4414 145.35 53.6378 147.263 53.6378H149.789V49.7605H147.66V41.3157H147.658ZM143.401 46.0272C143.401 48.5284 141.236 50.3765 138.601 50.3765C136.977 50.3765 135.605 49.6877 135.605 48.2389C135.605 46.3908 137.807 45.8831 139.828 45.6663C141.776 45.4852 142.859 45.0503 143.401 44.2161V46.0272ZM120.415 34.5379C117.997 34.5379 115.976 35.5532 114.533 37.2559V27H110.203V53.6378H114.461V51.1736C115.904 52.949 117.962 54 120.415 54C125.611 54 129.545 49.8688 129.545 44.2875C129.545 38.7061 125.539 34.5379 120.415 34.5379ZM119.766 49.9772C116.663 49.9772 114.389 47.5488 114.389 44.2875C114.389 41.0262 116.698 38.562 119.801 38.562C122.941 38.562 125.141 40.9905 125.141 44.2875C125.141 47.5488 122.869 49.9772 119.766 49.9772ZM99.8469 34.5379C97.0324 34.5379 95.1915 35.6972 94.1091 37.3286V34.9001H89.8146V53.6364H94.1445V43.4533C94.1445 40.5899 95.9486 38.5606 98.6187 38.5606C101.109 38.5606 102.66 40.336 102.66 42.91V53.6378H106.99V42.5848C106.991 37.8719 104.574 34.5379 99.8469 34.5379ZM188 43.6714C188 38.3082 184.103 34.5393 178.87 34.5393C173.314 34.5393 169.236 38.7431 169.236 44.2875C169.236 50.1227 173.602 54 178.943 54C183.454 54 186.99 51.3177 187.891 47.5131H183.38C182.731 49.1801 181.143 50.1227 179.013 50.1227C176.234 50.1227 174.142 48.3829 173.673 45.3384H187.999V43.6714H188ZM173.926 42.2212C174.613 39.6116 176.561 38.3439 178.798 38.3439C181.252 38.3439 183.128 39.7571 183.561 42.2212H173.926Z" fill="#5B588F"/>
</svg>
