<svg width="29" height="26" viewBox="0 0 29 26" fill="none" xmlns="http://www.w3.org/2000/svg">
<path d="M1.67821 14.7728L1.77692 14.6168L7.72978 5.25685C7.81679 5.11982 8.02132 5.13399 8.08713 5.28284C9.08164 7.52299 9.93976 10.309 9.53775 12.0435C9.36612 12.7572 8.89592 13.7236 8.3669 14.6168C8.29875 14.7468 8.22351 14.8744 8.14356 14.9973C8.10594 15.054 8.04246 15.0871 7.97427 15.0871H1.85216C1.68759 15.0871 1.5912 14.9075 1.67821 14.7728Z" fill="#ECE5FF"/>
<path d="M28.2125 16.5123V17.9939C28.2125 18.0789 28.1608 18.1545 28.0856 18.1876C27.6248 18.3861 26.0472 19.1139 25.3913 20.0308C23.7173 22.3726 22.4384 25.721 19.5795 25.721H7.65263C3.42549 25.721 0 22.2663 0 18.0033V17.8663C0 17.7528 0.0916702 17.6607 0.204531 17.6607H6.85332C6.98494 17.6607 7.08133 17.7836 7.06961 17.9135C7.02256 18.3483 7.10252 18.7926 7.30705 19.1966C7.70201 20.0025 8.52018 20.5058 9.40417 20.5058H12.6957V17.923H9.44178C9.27487 17.923 9.17616 17.7292 9.27254 17.5922C9.30778 17.5378 9.34778 17.4811 9.39007 17.4173C9.69808 16.9778 10.1377 16.2949 10.575 15.5174C10.8736 14.9928 11.1627 14.4328 11.3955 13.8704C11.4426 13.7688 11.4801 13.6648 11.5178 13.5631C11.5812 13.3836 11.6471 13.2158 11.6941 13.048C11.7411 12.9062 11.7787 12.7574 11.8163 12.6179C11.9269 12.1406 11.9739 11.6349 11.9739 11.1103C11.9739 10.9048 11.9645 10.6897 11.9457 10.4841C11.9362 10.2597 11.9081 10.0351 11.8798 9.81065C11.861 9.61216 11.8258 9.41602 11.7881 9.21045C11.7411 8.91034 11.6753 8.61263 11.6 8.31248L11.5742 8.19909C11.5178 7.99347 11.4708 7.79737 11.4049 7.5918C11.2192 6.94665 11.0053 6.3181 10.7795 5.72972C10.6973 5.49576 10.6032 5.27128 10.5092 5.0468C10.3705 4.70889 10.2294 4.4017 10.1001 4.11102C10.0343 3.97868 9.97785 3.85816 9.92142 3.7353C9.85794 3.59587 9.79213 3.45644 9.72627 3.32415C9.67927 3.22253 9.62517 3.128 9.58755 3.03347L9.18554 2.28676C9.12911 2.18514 9.22316 2.06462 9.33364 2.09535L11.8493 2.78061H11.8563C11.861 2.78061 11.8634 2.783 11.8657 2.783L12.1972 2.87514L12.5616 2.97915L12.6957 3.01691V1.51405C12.6957 0.788581 13.274 0.200195 13.9887 0.200195C14.3461 0.200195 14.6705 0.346705 14.9033 0.585353C15.136 0.824047 15.2818 1.15014 15.2818 1.51405V3.74477L15.5498 3.82035C15.571 3.82748 15.5921 3.83691 15.6109 3.85108C15.6768 3.90071 15.7708 3.97394 15.8907 4.06378C15.9848 4.13936 16.0859 4.23154 16.2081 4.32607C16.4503 4.52217 16.7395 4.77503 17.0568 5.06571C17.1415 5.13894 17.2238 5.21456 17.299 5.29019C17.7081 5.673 18.1665 6.12196 18.6038 6.61821C18.7261 6.75763 18.846 6.89941 18.9682 7.04826C19.0905 7.19951 19.2198 7.34837 19.3326 7.49727C19.4808 7.69576 19.6406 7.90133 19.7794 8.11638C19.8452 8.21799 19.9204 8.32196 19.9839 8.42357C20.1626 8.69529 20.3201 8.97654 20.4706 9.25773C20.5341 9.38768 20.5999 9.52946 20.6563 9.66888C20.8232 10.0446 20.9549 10.4274 21.0395 10.8102C21.0654 10.8929 21.0842 10.9827 21.0936 11.0631V11.082C21.1218 11.1954 21.1312 11.3159 21.1406 11.4388C21.1782 11.8311 21.1594 12.2233 21.0748 12.6179C21.0395 12.7857 20.9925 12.944 20.9361 13.1118C20.8796 13.2725 20.8232 13.4403 20.7503 13.5986C20.6093 13.9271 20.4423 14.2555 20.2449 14.5627C20.1814 14.6762 20.1061 14.7967 20.0309 14.9101C19.9486 15.0306 19.864 15.144 19.7887 15.2551C19.6853 15.3969 19.5748 15.5457 19.462 15.6781C19.3609 15.8175 19.2574 15.9569 19.1446 16.0798C18.987 16.2665 18.8366 16.4437 18.679 16.6139C18.585 16.7249 18.4839 16.8384 18.3805 16.94C18.2794 17.0534 18.1759 17.155 18.0819 17.2495C17.9244 17.4078 17.7927 17.5307 17.6822 17.6323L17.4236 17.871C17.386 17.9041 17.3366 17.923 17.2849 17.923H15.2818V20.5058H17.8021C18.3664 20.5058 18.9024 20.3049 19.335 19.9363C19.4831 19.8063 20.1297 19.2439 20.8937 18.3956C20.9196 18.3672 20.9525 18.346 20.9902 18.3365L27.9516 16.3138C28.0809 16.276 28.2125 16.3752 28.2125 16.5123Z" fill="#ECE5FF"/>
</svg>
