<svg width="227" height="80" viewBox="0 0 227 80" fill="none" xmlns="http://www.w3.org/2000/svg">
<path fill-rule="evenodd" clip-rule="evenodd" d="M26.6804 20.8434C31.0222 26.1105 35.7894 32.7275 36.5604 33.7978C36.6016 33.8549 36.6313 33.8962 36.649 33.9206C37.0601 34.4885 37.3994 34.9106 37.6571 35.2312L37.6571 35.2312C38.2292 35.9428 38.3989 36.154 38.0576 36.348C37.7822 36.5044 37.4982 36.5559 37.2148 36.5559C36.8942 36.5559 36.533 36.4016 36.2701 36.1523C36.0842 35.9761 34.8123 34.1298 33.0804 31.4438C31.7552 29.3886 30.6462 27.6837 30.616 27.6552C30.546 27.5892 30.5472 27.5914 32.9453 31.88C34.451 34.573 35.481 36.563 35.481 36.6903C35.481 36.9493 35.4103 37.0854 35.0907 37.4418C34.5579 38.036 34.3197 38.7036 34.1477 40.0851C33.955 41.6338 33.413 42.728 31.9108 44.6003C31.0316 45.6964 30.8877 45.8973 30.6658 46.3391C30.3864 46.8954 30.3095 47.207 30.2784 47.9095C30.2454 48.6523 30.3095 49.1321 30.5366 49.8422C30.7354 50.4639 30.9428 50.8745 31.4732 51.6957C31.9309 52.4041 32.1945 52.9307 32.1945 53.1367C32.1945 53.3006 32.2258 53.3008 32.935 53.1408C34.6324 52.7576 36.0107 52.0839 36.7858 51.2581C37.2656 50.747 37.3782 50.4648 37.3819 49.7644C37.3843 49.3063 37.3681 49.2104 37.2443 48.9469C37.0426 48.5178 36.6754 48.1612 35.8662 47.6083C34.8059 46.8838 34.353 46.3006 34.2279 45.4985C34.1253 44.8404 34.2444 44.376 34.8309 43.1473C35.438 41.8754 35.5885 41.3334 35.6903 40.0513C35.756 39.223 35.847 38.8963 36.0851 38.6342C36.3335 38.3608 36.557 38.2682 37.1715 38.1842C38.1734 38.0475 38.8114 37.7884 39.3358 37.3054C39.7906 36.8864 39.981 36.4827 40.0102 35.8749L40.0324 35.4143L39.7782 35.118C38.8576 34.0452 26.0638 20 26.0072 20C25.9951 20 26.298 20.3795 26.6804 20.8434ZM32.7113 48.75C32.9194 48.3814 32.8088 47.9079 32.4606 47.6764C32.1317 47.4578 31.6206 47.5608 31.6206 47.8457C31.6206 47.9326 31.6687 47.9959 31.7771 48.0518C31.9597 48.1456 31.9729 48.2512 31.8293 48.4669C31.6839 48.6855 31.6956 48.8775 31.8624 49.008C32.1313 49.2185 32.5119 49.1028 32.7113 48.75ZM38.9763 28.6581C38.5656 28.5945 38.5482 28.587 38.7415 28.5573C39.1119 28.5004 39.9865 28.578 40.5892 28.7212C41.9962 29.0555 43.2765 29.9118 44.6431 31.4327L45.0061 31.8367L45.5256 31.7533C47.7137 31.4018 49.9397 31.6811 51.8016 32.5408C52.3138 32.7773 53.1213 33.2481 53.2222 33.3691C53.2542 33.4076 53.3134 33.6558 53.3533 33.9206C53.4916 34.8369 53.4224 35.5392 53.142 36.0637C52.9895 36.3492 52.981 36.4397 53.0835 36.6839C53.1653 36.8789 53.3936 37.0231 53.6198 37.0228C54.0824 37.0222 54.5803 36.2747 54.8112 35.2345L54.9028 34.8213L55.0844 35.0269C56.0802 36.1547 56.8626 37.6928 56.9969 38.7876L57.0319 39.073L56.8646 38.8136C56.5763 38.3671 56.287 38.063 55.9162 37.8179C55.2481 37.376 54.5414 37.2256 52.6703 37.127C50.9803 37.038 50.0239 36.8937 49.0755 36.5846C47.4617 36.0588 46.6484 35.3584 44.7315 32.8448C43.8801 31.7284 43.3539 31.1106 42.8305 30.6132C41.641 29.4829 40.4723 28.8901 38.9763 28.6581ZM53.6033 31.1509C53.6458 30.4028 53.7474 29.9093 53.9515 29.4587C54.0322 29.2803 54.1079 29.1343 54.1195 29.1343C54.1313 29.1343 54.0961 29.266 54.0415 29.4269C53.8932 29.8642 53.8687 30.4624 53.971 31.1584C54.1007 32.0415 54.1745 32.1689 55.1083 33.1228C55.5463 33.5702 56.0558 34.1345 56.2405 34.3768L56.5763 34.8173L56.2405 34.5025C55.8298 34.1175 54.8854 33.3667 54.6768 33.2593C54.5368 33.1874 54.516 33.1886 54.4298 33.2744C54.3504 33.3535 54.3335 33.4724 54.3225 34.0343C54.3053 34.91 54.186 35.472 53.8977 36.0341C53.7418 36.338 53.7172 36.2732 53.8582 35.93C53.9636 35.6739 53.9743 35.5613 53.9736 34.7135C53.9719 33.0102 53.7695 32.6007 52.583 31.8993C52.2826 31.7216 51.7873 31.4653 51.4825 31.3297C51.178 31.1942 50.9359 31.0761 50.9446 31.0673C50.9783 31.0338 52.1354 31.3714 52.6011 31.5504C53.2939 31.8168 53.4081 31.8513 53.4923 31.8192C53.5486 31.7976 53.576 31.6335 53.6033 31.1509ZM38.5361 29.8433C38.4244 31.1583 38.9403 32.9174 39.7741 34.0648C40.4204 34.9542 41.4224 35.6453 42.162 35.7121C42.6464 35.7558 42.7919 35.6042 42.5728 35.2844C42.2686 34.8404 41.8945 34.1566 41.7955 33.8639C41.734 33.6821 41.6003 33.1449 41.4984 32.6702C41.1506 31.0497 40.8088 30.4186 40.0191 29.9392C39.7313 29.7645 39.1168 29.5359 38.7604 29.4709L38.5706 29.4363L38.5361 29.8433ZM52.5921 42.6038C48.6954 41.0358 47.323 39.6746 47.323 37.378C47.323 37.0401 47.3348 36.7635 47.3489 36.7635C47.3632 36.7635 47.5138 36.8751 47.6839 37.0114C48.474 37.6449 49.3589 37.9154 51.8084 38.2725C53.2497 38.4828 54.0608 38.6525 54.8092 38.9006C57.1874 39.689 58.6589 41.2888 59.0098 43.468C59.1117 44.1011 59.052 45.2885 58.8867 45.9143C58.7561 46.4086 58.3578 47.2994 58.2522 47.3337C58.2229 47.3432 58.1941 47.231 58.1867 47.0784C58.1467 46.2601 57.7329 45.4635 57.0382 44.8667C56.2482 44.1882 55.1869 43.6482 52.5921 42.6038ZM49.6683 42.4313C49.723 42.5942 49.8077 42.9649 49.8564 43.2553C50.1686 45.1118 49.1935 46.6118 47.2969 47.193C47.0961 47.2545 46.3053 47.4093 45.5394 47.5367C43.989 47.7947 43.297 47.9774 42.6019 48.3121C42.1089 48.5495 41.5121 48.905 41.5476 48.9403C41.559 48.9517 41.6715 48.9248 41.7976 48.8806C42.6742 48.573 43.6498 48.4137 45.132 48.3366C45.7202 48.3062 46.3893 48.2574 46.6189 48.2286C47.9393 48.0623 48.8546 47.6614 49.5664 46.9373C49.9623 46.5344 50.1984 46.159 50.3887 45.6298C50.5093 45.294 50.5256 45.1693 50.5265 44.5745C50.5276 43.9684 50.5129 43.8575 50.3822 43.4846C50.2111 42.9959 50.0092 42.6291 49.7536 42.3423L49.5689 42.1351L49.6683 42.4313ZM51.6428 46.426C51.1249 45.3136 51.0062 44.2396 51.2897 43.2381C51.3201 43.131 51.3688 43.0433 51.3983 43.0433C51.4277 43.0433 51.5497 43.1095 51.6697 43.1901C51.9082 43.3506 52.3867 43.621 53.6614 44.3156C55.2522 45.1824 56.1592 45.8536 56.7759 46.6206C57.316 47.2921 57.6502 48.057 57.811 48.9897C57.9022 49.5181 57.8488 50.7894 57.7132 51.3214C57.2855 52.9989 56.2915 54.3165 54.8738 55.0855C54.6661 55.198 54.4796 55.2905 54.4594 55.291C54.4393 55.2914 54.5149 55.0991 54.6276 54.8635C55.1045 53.867 55.1588 52.8977 54.7983 51.8189C54.5774 51.1583 54.1273 50.3523 53.2184 48.9899C52.1617 47.406 51.9026 46.9845 51.6428 46.426ZM41.8909 50.0746C40.252 50.3406 38.4529 51.2074 37.0069 52.4277L36.5764 52.7911L36.9547 52.8502C38.929 53.1582 39.4606 53.4314 40.8301 54.8415C41.6182 55.6527 41.8844 55.8333 42.538 56.0001C43.4981 56.2451 44.4445 55.795 44.7691 54.9389C44.9142 54.5564 44.8948 53.9231 44.7284 53.605C44.3326 52.8477 43.1795 52.603 42.6219 53.1577C42.1574 53.6197 42.2927 54.3158 42.8704 54.4355C43.0026 54.4631 42.9989 54.4572 42.8367 54.3839C42.5839 54.2696 42.4741 54.1112 42.4726 53.8591C42.4694 53.268 43.1461 52.9362 43.7757 53.22C44.2366 53.428 44.4197 53.6996 44.4197 54.1759C44.4197 54.9092 43.7953 55.4617 43.0685 55.3714C42.6801 55.3231 42.2051 55.0747 41.9503 54.787C41.3094 54.0626 41.5591 52.9195 42.454 52.4809C43.1352 52.1472 44.0408 52.2294 44.7431 52.689C45.5499 53.2171 45.893 53.6998 46.5879 55.284C46.8142 55.7998 47.1054 56.3805 47.2348 56.5744C47.8932 57.5592 48.6819 58.0423 49.6319 58.0423C50.1559 58.0423 50.5501 57.9466 51.046 57.6992C51.4144 57.5152 51.9368 57.1656 51.8991 57.1282C51.8885 57.1176 51.7356 57.1651 51.5595 57.2337C50.5222 57.6381 49.4677 57.6103 48.8553 57.1622C48.4697 56.8802 48.1586 56.3183 47.9987 55.6156C47.971 55.494 47.8798 54.9568 47.7958 54.4219C47.5828 53.0659 47.3784 52.4564 46.9017 51.7569C46.4139 51.0413 45.4762 50.4408 44.4278 50.1726C43.7738 50.0052 42.5972 49.9597 41.8909 50.0746ZM39.5956 39.591C39.7371 39.0685 40.1943 38.5703 40.6647 38.4259C40.9637 38.3341 41.5819 38.3927 41.8726 38.5403C42.4359 38.8267 42.8449 39.4786 42.7561 39.9493C42.6479 40.5232 41.7167 40.9824 40.6456 40.9899C40.0985 40.9937 39.8965 40.9202 39.6876 40.6414C39.5583 40.4687 39.5093 39.9097 39.5956 39.591ZM41.7288 38.745C42.0097 38.9164 42.082 39.1699 41.9168 39.4045C41.803 39.5661 41.4508 39.7196 41.1934 39.7196C40.8067 39.7196 40.3848 39.4451 40.3848 39.1938C40.3848 38.6887 41.1938 38.4183 41.7288 38.745ZM125.687 40.1912C124.813 37.3151 126.254 34.9295 129.329 34.1629C130.211 33.9429 134.204 34.0422 134.888 34.3012C135.139 34.396 135.248 34.7603 135.251 35.5089C135.252 36.0984 135.317 36.8145 135.395 37.1C135.513 37.5328 135.444 37.618 134.982 37.611C134.565 37.6046 134.312 37.3625 133.96 36.63C133.397 35.4602 132.715 35.0881 131.127 35.0837C129.099 35.0779 127.615 36.429 127.857 38.0614C128.014 39.1237 129.087 40.169 131.494 41.6059C133.784 42.9727 135.121 44.0968 135.653 45.1039C137.077 47.7965 135.861 50.6778 132.688 52.1296C131.059 52.8748 128.329 52.9518 126.41 52.3068L125.181 51.8936V49.9504C125.181 48.1904 125.223 48.0068 125.629 48.0068C125.968 48.0068 126.114 48.2286 126.233 48.9234C126.53 50.6511 127.856 51.7 129.746 51.7C131.597 51.7 132.891 50.6991 133.387 48.8844C133.598 48.1112 133.562 47.8262 133.143 46.9734C132.641 45.9509 131.777 45.2724 128.842 43.5968C127.213 42.6669 126.061 41.4237 125.687 40.1912ZM68.1492 35.311C67.7487 35.311 67.5925 35.1816 67.5925 34.8494C67.5925 34.4097 67.7487 34.3877 70.8871 34.3877C73.8 34.3877 74.1728 34.4311 74.106 34.7619C74.0641 34.9678 73.6616 35.2534 73.211 35.3967L72.3915 35.6573L72.3216 41.5435C72.2747 45.4712 72.3406 47.737 72.5193 48.3529C73.0507 50.1849 74.6718 51.2384 76.959 51.2384C78.5512 51.2384 79.4813 50.8701 80.6499 49.7761C81.9068 48.6 82.1073 47.4826 82.1033 41.6747C82.0995 35.9459 81.9986 35.4731 80.7553 35.3542C80.1894 35.3 79.9999 35.1695 79.9999 34.8348C79.9999 34.4175 80.1866 34.3877 82.809 34.3877C85.4621 34.3877 85.6182 34.4133 85.6182 34.8494C85.6182 35.1338 85.4609 35.3124 85.2085 35.3145C84.1243 35.324 84.1044 35.426 83.9584 41.7078C83.8071 48.2313 83.6656 49.0037 82.3296 50.6017C81.9443 51.0627 81.0254 51.732 80.2878 52.0893C79.0857 52.6714 78.7033 52.7382 76.6053 52.7345C74.6714 52.7305 74.0609 52.6381 73.0938 52.2025C71.6823 51.5667 70.7643 50.7437 70.0875 49.5071C69.6151 48.6439 69.5747 48.1768 69.4654 42.3283C69.3401 35.6338 69.2794 35.311 68.1492 35.311ZM90.0551 35.311C89.5199 35.311 89.3638 35.2067 89.3638 34.8494C89.3638 34.4166 89.5134 34.3889 91.7633 34.4067L94.1629 34.4256L95.311 35.7339C95.942 36.4534 97.9995 38.7043 99.8828 40.7355C101.766 42.7669 103.928 45.1299 104.688 45.9869C105.447 46.844 106.162 47.5451 106.276 47.5451C106.393 47.5451 106.452 45.1242 106.41 41.9848L106.336 36.4246L105.679 35.8678C105.318 35.5615 104.765 35.311 104.45 35.311C104.031 35.311 103.878 35.1855 103.878 34.8429C103.878 34.3921 103.998 34.3771 107.097 34.439C109.732 34.4916 110.316 34.5643 110.316 34.8399C110.316 35.0364 109.99 35.2425 109.533 35.3346C109.103 35.4214 108.629 35.6125 108.48 35.7593C108.287 35.9488 108.19 38.3992 108.142 44.2094L108.075 52.3924H107.396C106.812 52.3924 106.117 51.7421 102.4 47.7182C100.025 45.1471 97.2525 42.0916 96.2393 40.9281C95.2259 39.7644 94.3178 38.8035 94.2213 38.793C93.9496 38.7629 94.0153 49.1592 94.2932 50.146C94.51 50.915 94.659 51.0474 95.5797 51.2904C96.3211 51.4859 96.621 51.6842 96.621 51.9787C96.621 52.357 96.3383 52.3924 93.3436 52.3924C90.295 52.3924 90.0662 52.3623 90.0662 51.9597C90.0662 51.665 90.2867 51.4835 90.7578 51.3905C92.1873 51.1087 92.2822 50.6613 92.3624 43.8225C92.4073 39.9923 92.3414 37.3124 92.188 36.7512C91.9186 35.7644 91.2472 35.311 90.0551 35.311ZM114.602 35.311C114.1 35.311 113.944 35.2014 113.944 34.8494C113.944 34.4083 114.1 34.3877 117.456 34.3877C120.811 34.3877 120.967 34.4083 120.967 34.8494C120.967 35.188 120.811 35.311 120.382 35.311C120.06 35.311 119.582 35.523 119.319 35.782C118.855 36.2392 118.844 36.4666 118.91 43.5337C118.974 50.4325 119.001 50.8317 119.432 51.1419C119.682 51.3219 120.129 51.4692 120.427 51.4692C120.811 51.4692 120.967 51.6023 120.967 51.9309C120.967 52.372 120.811 52.3924 117.456 52.3924C114.18 52.3924 113.944 52.3634 113.944 51.9605C113.944 51.6355 114.174 51.4919 114.872 51.3819C116.257 51.1635 116.328 50.7163 116.241 42.7364C116.173 36.3459 116.143 35.9474 115.714 35.6384C115.464 35.4583 114.964 35.311 114.602 35.311ZM139.097 35.311C138.776 35.311 138.533 35.1354 138.457 34.8494C138.339 34.403 138.45 34.3877 141.824 34.3877C145.158 34.3877 145.314 34.4083 145.314 34.8494C145.314 35.2042 145.158 35.311 144.64 35.311C143.166 35.311 143.199 35.5751 145.43 41.6118C146.565 44.6847 147.667 47.6037 147.879 48.0983L148.264 48.9979L150.052 44.2896C152.157 38.7475 152.431 37.7225 152.073 36.7117C151.824 36.0072 150.855 35.311 150.124 35.311C149.918 35.311 149.762 35.1125 149.762 34.8494C149.762 34.4076 149.918 34.3877 153.39 34.3877C156.863 34.3877 157.019 34.4076 157.019 34.8494C157.019 35.1779 156.863 35.311 156.478 35.311C155.494 35.311 155.06 35.8286 155.201 36.8341C155.347 37.8691 159.373 48.9935 159.542 48.827C159.817 48.5563 164.276 36.5809 164.276 36.1141C164.276 35.5548 163.879 35.311 162.969 35.311C162.559 35.311 162.403 35.1839 162.403 34.8494C162.403 34.4133 162.559 34.3877 165.212 34.3877C167.595 34.3877 168.021 34.4422 168.021 34.746C168.021 34.9431 167.73 35.2046 167.373 35.3272C166.57 35.6031 166.369 35.9179 165.362 38.4683C164.92 39.5883 163.537 43.0935 162.287 46.2572C161.038 49.4213 159.963 52.1481 159.897 52.3166C159.831 52.4854 159.444 52.6234 159.037 52.6234H158.296L156.614 48.2953C155.689 45.915 154.596 43.0949 154.186 42.0285C153.483 40.2012 153.424 40.1218 153.159 40.6434C153.004 40.9482 151.893 43.7733 150.69 46.9216L148.501 52.646L147.684 52.577L146.868 52.508L143.753 44.4469C142.012 39.9432 140.412 36.1485 140.126 35.8484C139.844 35.5527 139.381 35.311 139.097 35.311ZM185.905 35.4089C185.866 35.3213 185.866 35.0061 185.866 35.0061C185.866 35.0061 185.857 34.8925 185.906 34.8318C185.954 34.7714 185.971 34.7698 186.143 34.7536L186.144 34.7534C186.776 34.694 188.045 34.5938 189.103 34.5482C189.2 34.544 189.308 34.5391 189.425 34.5339L189.427 34.5338L189.428 34.5337L189.429 34.5337C190.594 34.4814 192.678 34.4114 194.111 34.4823C196.859 34.6182 198.814 35.9328 199.48 38.1053C200.147 40.2777 199.794 42.317 198.886 43.6151C197.978 44.9131 196.451 46.0308 193.913 45.958C191.818 45.898 191.257 45.5097 190.809 45.1996C190.715 45.134 190.625 45.0719 190.527 45.0172V47.7877C190.549 49.6772 190.565 50.5846 190.713 50.9206C190.912 51.3728 191.362 51.6514 192.24 51.865C192.24 51.865 192.637 51.9571 192.739 52.0552C192.842 52.1534 192.842 52.3715 192.842 52.3715C192.842 52.3715 192.863 52.5754 192.78 52.6793C192.698 52.7832 192.539 52.7624 192.539 52.7624L188.654 52.7314L186.311 52.7253C186.311 52.7253 186.065 52.7719 185.973 52.6741C185.881 52.5761 185.889 52.372 185.889 52.372C185.889 52.372 185.909 52.1522 186.017 52.0538C186.124 51.9553 186.524 51.8453 186.524 51.8453C187.428 51.5942 187.82 51.3287 188.025 50.8285C188.189 50.4252 188.191 49.6773 188.189 43.5744C188.187 37.7868 188.179 36.7071 188.045 36.3967C187.846 35.937 187.349 35.8153 186.642 35.6419L186.641 35.6418C186.501 35.6074 186.352 35.571 186.196 35.5296C186.196 35.5296 185.945 35.4966 185.905 35.4089ZM197.219 40.1315C197.219 41.0806 197.202 42.5664 196.181 43.5162C195.16 44.4659 193.15 44.7259 191.785 44.4614C191.355 44.3781 191.109 44.2497 190.92 44.1506L190.901 44.1407L190.551 43.9587L190.531 40.6242C190.518 38.535 190.54 37.1738 190.59 36.9792C190.636 35.8775 192.278 35.7405 193.08 35.7813C196.513 35.7813 197.119 38.6434 197.219 40.1315ZM175.126 34.517C175.126 34.517 174.958 34.5807 174.704 34.676L173.787 35.1445L173.127 36.7751C172.764 37.6719 172.1 39.3181 171.652 40.4334C170.835 42.4648 170.295 43.7994 169.727 45.1924C169.56 45.6022 169.056 46.8499 168.607 47.9652C168.158 49.0804 167.709 50.1417 167.609 50.3238C167.592 50.3541 167.575 50.3867 167.556 50.4211C167.305 50.8883 166.869 51.7 166.098 51.8227C166.098 51.8227 165.674 51.8639 165.517 52.0173C165.36 52.1708 165.375 52.2962 165.375 52.2962V52.4895C165.375 52.4895 165.39 52.5832 165.479 52.6298C165.568 52.6766 165.688 52.6793 165.688 52.6793L168.507 52.6476H171.421C171.421 52.6476 171.627 52.6714 171.707 52.6062C171.786 52.541 171.808 52.4442 171.808 52.4442V52.2407C171.808 52.2407 171.768 52.0199 171.652 51.9338C171.537 51.8478 171.104 51.7888 171.104 51.7888C169.938 51.6371 169.737 50.764 169.881 49.9789C169.952 49.5931 170.42 48.1663 170.948 46.7297L171.131 46.2332L174.184 46.2101C175.864 46.1974 177.314 46.206 177.406 46.2293C177.539 46.2624 177.725 46.6353 178.269 47.9633C179.095 49.9753 179.161 50.2204 178.978 50.5968C178.967 50.6198 178.955 50.645 178.942 50.6723C178.771 51.0363 178.438 51.7437 177.599 51.8157C177.599 51.8157 177.154 51.8309 177.043 51.9626C176.932 52.0945 176.956 52.2461 176.956 52.2461V52.4474C176.956 52.4474 176.986 52.5655 177.043 52.6123C177.1 52.659 177.197 52.6472 177.197 52.6472L179.968 52.6275L183.864 52.6273C183.864 52.6273 184.017 52.6434 184.059 52.5854C184.1 52.5272 184.109 52.4587 184.109 52.4587V52.1912C184.109 52.1912 184.092 52.049 184.017 51.9705C183.942 51.8922 183.437 51.8094 183.437 51.8094C182.791 51.7064 182.47 51.1793 182.231 50.7867C182.17 50.6866 182.114 50.5952 182.059 50.5219C181.949 50.3723 181.552 49.5525 181.242 48.764C180.932 47.9754 180.232 46.1942 179.687 44.8058C179.141 43.4174 178.38 41.4806 177.996 40.502C177.611 39.5233 176.88 37.661 176.371 36.3636C176.287 36.1507 176.212 35.9594 176.145 35.7882L176.145 35.7874C175.804 34.9162 175.666 34.5646 175.628 34.517C175.506 34.3625 175.126 34.517 175.126 34.517ZM174.944 39.8187C174.821 39.5229 174.605 38.9922 174.463 38.6394C174.206 37.9982 174.109 37.8505 174.029 37.983C174.006 38.0217 173.844 38.4599 173.669 38.9569C172.54 42.1747 172.028 43.6237 171.925 43.8967C171.861 44.0684 171.808 44.2452 171.808 44.2898C171.808 44.341 172.727 44.371 174.302 44.371C175.673 44.371 176.795 44.3541 176.795 44.3335C176.795 44.3129 176.673 44.0058 176.523 43.6507C176.374 43.2956 176.008 42.4093 175.71 41.681C175.412 40.9526 175.067 40.1147 174.944 39.8187Z" fill="#5B588F"/>
</svg>
