<svg viewBox="0 0 40 40" fill="none" xmlns="http://www.w3.org/2000/svg">
<path d="M4.12991 18.6872C14.0083 14.3971 20.5955 11.5688 23.8914 10.2023C33.3018 6.30069 35.2572 5.62293 36.5317 5.60031C36.812 5.59563 37.4388 5.66488 37.8448 5.99326C38.1876 6.27054 38.2819 6.64511 38.3271 6.908C38.3722 7.17089 38.4284 7.76977 38.3837 8.23771C37.8738 13.5787 35.6672 26.54 34.5446 32.522C34.0696 35.0533 33.1343 35.902 32.2289 35.985C30.261 36.1655 28.7668 34.6887 26.8608 33.4434C23.8785 31.4946 22.1936 30.2815 19.2987 28.3799C15.9531 26.1822 18.1219 24.9744 20.0285 23.0004C20.5275 22.4838 29.1977 14.6227 29.3655 13.9096C29.3865 13.8204 29.406 13.488 29.2079 13.3124C29.0097 13.1369 28.7173 13.1969 28.5063 13.2447C28.2072 13.3123 23.4427 16.4514 14.213 22.6618C12.8607 23.5874 11.6358 24.0385 10.5383 24.0148C9.32837 23.9888 7.00101 23.3329 5.27085 22.7723C3.14875 22.0847 1.46215 21.7212 1.60901 20.5534C1.68551 19.9451 2.52581 19.3231 4.12991 18.6872Z" fill="url(#paint0_linear_361_796)"/>
<defs>
<linearGradient id="paint0_linear_361_796" x1="-22.261" y1="-5.16051" x2="72.7949" y2="66.2337" gradientUnits="userSpaceOnUse">
<stop offset="0.205472" stop-color="#E644F8"/>
<stop offset="0.536698" stop-color="#9FA3FF"/>
<stop offset="1" stop-color="#82D2FF"/>
</linearGradient>
</defs>
</svg>
