<svg viewBox="0 0 40 40" fill="none" xmlns="http://www.w3.org/2000/svg">
<path d="M38.4001 8.3075C36.9901 9.00904 35.5801 9.24288 33.9351 9.47673C35.5801 8.54134 36.7551 7.13827 37.2251 5.2675C35.8151 6.20288 34.17 6.67057 32.29 7.13827C30.88 5.73519 28.7651 4.7998 26.6501 4.7998C21.7151 4.7998 17.9551 9.47673 19.1301 14.1537C12.785 13.9198 7.14505 10.8798 3.15005 6.20288C1.03505 9.71058 2.21005 14.1537 5.50005 16.4921C4.32505 16.4921 3.15005 16.0244 1.97505 15.5567C1.97505 19.0644 4.56005 22.3383 8.08505 23.2737C6.91005 23.5075 5.73505 23.7413 4.56005 23.5075C5.50005 26.5475 8.32005 28.886 11.845 28.886C9.02505 30.9906 4.79505 32.1598 0.800049 31.6921C4.32505 33.7967 8.32005 35.1998 12.55 35.1998C26.8851 35.1998 34.875 23.2737 34.405 12.2829C36.05 11.3475 37.4601 9.94442 38.4001 8.3075Z" fill="url(#paint0_linear_361_776)"/>
<defs>
<linearGradient id="paint0_linear_361_776" x1="-23.5798" y1="-5.9608" x2="72.0271" y2="67.4083" gradientUnits="userSpaceOnUse">
<stop offset="0.205472" stop-color="#E644F8"/>
<stop offset="0.536698" stop-color="#9FA3FF"/>
<stop offset="1" stop-color="#82D2FF"/>
</linearGradient>
</defs>
</svg>
