<svg width="50" height="50" viewBox="0 0 50 50" fill="none" xmlns="http://www.w3.org/2000/svg">
<path d="M46.85 13.8571C46.275 11.8571 44.8375 10.4286 42.825 9.85714C39.375 9 24.7125 9 24.7125 9C24.7125 9 10.3375 9 6.60002 9.85714C4.58752 10.4286 3.14999 11.8571 2.57499 13.8571C1.99999 17.5714 2 25 2 25C2 25 2.00001 32.4286 2.86251 36.1429C3.43751 38.1429 4.87499 39.5714 6.88749 40.1429C10.3375 41 25 41 25 41C25 41 39.375 41 43.1125 40.1429C45.125 39.5714 46.5625 38.1429 47.1375 36.1429C48 32.4286 48 25 48 25C48 25 48 17.5714 46.85 13.8571ZM20.4 31.8571V18.1429L32.475 25L20.4 31.8571Z" fill="url(#paint0_linear_71_254)"/>
<defs>
<linearGradient id="paint0_linear_71_254" x1="-27.8264" y1="-2.32696" x2="75.6818" y2="89.9923" gradientUnits="userSpaceOnUse">
<stop offset="0.205472" stop-color="#E644F8"/>
<stop offset="0.536698" stop-color="#9FA3FF"/>
<stop offset="1" stop-color="#82D2FF"/>
</linearGradient>
</defs>
</svg>
