<svg viewBox="0 0 38 23" fill="none" xmlns="http://www.w3.org/2000/svg">
<path d="M28.9011 22.4512C27.7059 22.4535 26.5221 22.2318 25.4174 21.7988C24.3128 21.3659 23.3092 20.7302 22.4641 19.9283L22.429 19.8938L12.5637 10.5334C11.8785 9.88329 11.0056 9.44052 10.0553 9.26113C9.1049 9.08174 8.11983 9.17378 7.22462 9.52562C6.3294 9.87746 5.56424 10.4733 5.0259 11.2378C4.48756 12.0022 4.20023 12.901 4.20023 13.8204C4.20023 14.7399 4.48756 15.6387 5.0259 16.4031C5.56424 17.1676 6.3294 17.7634 7.22462 18.1153C8.11983 18.4671 9.1049 18.5591 10.0553 18.3798C11.0056 18.2004 11.8785 17.7576 12.5637 17.1074L14.381 15.3831L17.3532 18.2039L15.5359 19.9283C11.9865 23.2967 6.21135 23.2967 2.66201 19.9283C-0.887335 16.5598 -0.887335 11.0799 2.66201 7.71203C3.50728 6.90988 4.5108 6.27358 5.61526 5.83945C6.71971 5.40533 7.90348 5.18188 9.09894 5.18188C10.2944 5.18188 11.4782 5.40533 12.5826 5.83945C13.6871 6.27358 14.6906 6.90988 15.5359 7.71203L25.4369 17.1068C25.447 17.1158 25.4564 17.1253 25.4664 17.1348C26.156 17.7784 27.031 18.2139 27.9811 18.3864C28.9312 18.5589 29.9138 18.4606 30.8051 18.104C31.6964 17.7475 32.4565 17.1485 32.9897 16.3826C33.5228 15.6168 33.805 14.7183 33.8009 13.8005C33.7967 12.8826 33.5062 11.9865 32.9662 11.225C32.4261 10.4636 31.6605 9.87087 30.766 9.52161C29.8715 9.17235 28.888 9.08218 27.9395 9.26245C26.9911 9.44273 26.1201 9.88539 25.4363 10.5346L23.7989 12.0889L20.8261 9.26871L22.4641 7.71381C23.3094 6.91166 24.3129 6.27536 25.4174 5.84124C26.5218 5.40711 27.7056 5.18367 28.9011 5.18367C30.0965 5.18367 31.2803 5.40711 32.3847 5.84124C33.4892 6.27536 34.4927 6.91166 35.338 7.71381C38.8873 11.0817 38.8873 16.5616 35.338 19.9295C34.4928 20.7311 33.4891 21.3666 32.3845 21.7993C31.2799 22.2321 30.0961 22.4536 28.9011 22.4512Z" fill="#ECE5FF"/>
<path d="M13.4723 3.22952C12.2716 2.0186 13.5342 -0.125805 15.3073 0.00578614C17.4226 0.162778 19.9711 0.231477 22.6959 0.046105C24.4698 -0.0745827 25.7274 2.01854 24.5268 3.22951L20.3353 7.45721C19.6177 8.1809 18.382 8.18093 17.6644 7.45727L13.4723 3.22952Z" fill="#ECE5FF"/>
</svg>
