<svg viewBox="0 0 163 23" fill="none" xmlns="http://www.w3.org/2000/svg">
<path d="M28.9011 22.4509C27.7059 22.4532 26.5221 22.2315 25.4174 21.7986C24.3128 21.3656 23.3092 20.7299 22.4641 19.928L22.429 19.8935L12.5637 10.5332C11.8785 9.88305 11.0056 9.44028 10.0553 9.26089C9.1049 9.0815 8.11983 9.17354 7.22462 9.52538C6.3294 9.87722 5.56424 10.473 5.0259 11.2375C4.48756 12.002 4.20023 12.9008 4.20023 13.8202C4.20023 14.7396 4.48756 15.6384 5.0259 16.4029C5.56424 17.1674 6.3294 17.7632 7.22462 18.115C8.11983 18.4669 9.1049 18.5589 10.0553 18.3795C11.0056 18.2001 11.8785 17.7574 12.5637 17.1072L14.381 15.3828L17.3532 18.2037L15.5359 19.928C11.9865 23.2965 6.21135 23.2965 2.66201 19.928C-0.887335 16.5596 -0.887335 11.0796 2.66201 7.71178C3.50728 6.90963 4.5108 6.27333 5.61526 5.83921C6.71971 5.40508 7.90348 5.18164 9.09894 5.18164C10.2944 5.18164 11.4782 5.40508 12.5826 5.83921C13.6871 6.27333 14.6906 6.90963 15.5359 7.71178L25.4369 17.1066C25.447 17.1155 25.4564 17.125 25.4664 17.1346C26.156 17.7782 27.031 18.2137 27.9811 18.3861C28.9312 18.5586 29.9138 18.4604 30.8051 18.1038C31.6964 17.7472 32.4565 17.1482 32.9897 16.3824C33.5228 15.6165 33.805 14.718 33.8009 13.8002C33.7967 12.8824 33.5062 11.9863 32.9662 11.2248C32.4261 10.4633 31.6605 9.87063 30.766 9.52137C29.8715 9.17211 28.888 9.08193 27.9395 9.26221C26.9911 9.44248 26.1201 9.88514 25.4363 10.5344L23.7989 12.0887L20.8261 9.26847L22.4641 7.71356C23.3094 6.91142 24.3129 6.27512 25.4174 5.84099C26.5218 5.40687 27.7056 5.18342 28.9011 5.18342C30.0965 5.18342 31.2803 5.40687 32.3847 5.84099C33.4892 6.27512 34.4927 6.91142 35.338 7.71356C38.8873 11.0814 38.8873 16.5613 35.338 19.9292C34.4928 20.7309 33.4891 21.3663 32.3845 21.7991C31.2799 22.2318 30.0961 22.4534 28.9011 22.4509Z" fill="#ECE5FF"/>
<path d="M13.4723 3.22952C12.2716 2.0186 13.5342 -0.125805 15.3073 0.00578614C17.4226 0.162778 19.9711 0.231477 22.6959 0.046105C24.4698 -0.0745827 25.7274 2.01854 24.5268 3.22951L20.3353 7.45721C19.6177 8.1809 18.382 8.18093 17.6644 7.45727L13.4723 3.22952Z" fill="#ECE5FF"/>
<path d="M55.1556 16.7805C58.1756 16.7805 60.3356 14.8005 60.3356 11.9005C60.3356 8.98047 58.1756 7.00047 55.1556 7.00047H46.5156V20.0005H49.9956V10.3405H55.2156C56.1556 10.3405 56.8556 11.0005 56.8556 12.0205C56.8556 13.0005 56.1556 13.6805 55.2156 13.6805H50.9956V16.7805H55.1556Z" fill="#ECE5FF"/>
<path d="M68.7625 20.0005C72.0625 20.0005 73.7625 18.2805 73.7625 15.2405V10.0205H70.4225V15.2405C70.4225 16.3605 69.8425 16.9605 68.6825 16.9605H66.9225C65.7825 16.9605 65.1825 16.3605 65.1825 15.2405V10.0205H61.8425V15.2405C61.8425 18.2805 63.5425 20.0005 66.8425 20.0005H68.7625Z" fill="#ECE5FF"/>
<path d="M92.2144 20.0005V14.7805C92.2144 11.7605 90.5344 10.0205 87.2544 10.0205H75.6144V20.0005H78.9744V13.0605H82.2544V20.0005H85.5744V13.0605H87.1744C88.3344 13.0605 88.8944 13.6205 88.8944 14.7605V20.0005H92.2144Z" fill="#ECE5FF"/>
<path d="M104.971 20.0005V14.7805C104.971 11.7405 103.291 10.0205 99.9909 10.0205H94.3909V12.8605H99.9509C101.111 12.8605 101.691 13.4405 101.691 14.5605V17.4405H97.7109C97.2509 17.4405 97.0109 17.1805 97.0109 16.7405C97.0109 16.2805 97.2509 16.0405 97.7509 16.0405H100.711V14.1005H96.9909C94.8909 14.1005 93.8509 15.3005 93.8509 17.0605C93.8509 18.7805 94.8909 20.0005 96.9909 20.0005H104.971Z" fill="#ECE5FF"/>
<path d="M123.854 20.0005V16.6405H115.934V7.00047H112.414V20.0005H123.854Z" fill="#ECE5FF"/>
<path d="M136.065 20.0005V14.7805C136.065 11.7405 134.385 10.0205 131.085 10.0205H125.485V12.8605H131.045C132.205 12.8605 132.785 13.4405 132.785 14.5605V17.4405H128.805C128.345 17.4405 128.105 17.1805 128.105 16.7405C128.105 16.2805 128.345 16.0405 128.845 16.0405H131.805V14.1005H128.085C125.985 14.1005 124.945 15.3005 124.945 17.0605C124.945 18.7805 125.985 20.0005 128.085 20.0005H136.065Z" fill="#ECE5FF"/>
<path d="M144.677 20.0005C147.777 20.0005 150.057 18.1205 150.057 14.8005C150.057 11.8205 148.217 9.92047 144.657 9.92047C143.797 9.92047 142.917 10.0205 142.237 10.2005V13.2205C142.917 13.0605 143.697 12.9405 144.297 12.9405C145.837 12.9405 146.717 13.4405 146.717 14.9005C146.717 16.3205 145.857 16.9605 144.677 16.9605H142.997C141.857 16.9605 141.257 16.3605 141.257 15.2405V5.98047H137.917V15.2405C137.917 18.2805 139.617 20.0005 142.917 20.0005H144.677Z" fill="#ECE5FF"/>
<path d="M158.911 20.0005C160.771 20.0005 162.131 18.8205 162.131 16.9805C162.131 15.2605 160.951 14.0005 158.911 14.0005H154.911C154.451 14.0005 154.231 13.7805 154.231 13.3805C154.231 12.9805 154.491 12.7605 154.911 12.7605H161.631V10.0205H154.291C152.451 10.0205 151.071 11.1805 151.071 13.0005C151.071 14.7005 152.271 16.0005 154.311 16.0005H158.231C158.711 16.0005 158.931 16.2405 158.931 16.6205C158.931 17.0405 158.671 17.2605 158.231 17.2605H151.191V20.0005H158.911Z" fill="#ECE5FF"/>
</svg>
